<?xml version="1.0" encoding="UTF-8"?>
<svg id="Icon" xmlns="http://www.w3.org/2000/svg" viewBox="0 0 80 80">
  <defs>
    <style>
      .cls-1 {
        fill: #efcc2a;
      }

      .cls-2 {
        fill: #fff;
      }

      .cls-3 {
        fill: #f0ba1a;
      }

      .cls-4 {
        fill: #19181d;
      }

      .cls-5 {
        fill: #efefef;
      }

      .cls-6 {
        fill: #e5e8ed;
      }

      .cls-7 {
        stroke: #1e1b19;
      }

      .cls-7, .cls-8 {
        fill: none;
        stroke-linejoin: round;
        stroke-width: .5px;
      }

      .cls-8 {
        stroke: #19181d;
      }
    </style>
  </defs>
  <path class="cls-7" d="M14.72,48.43c0,1.08-.88,1.94-1.94,1.94s-1.94-.86-1.94-1.94.86-1.94,1.94-1.94,1.94.88,1.94,1.94Z"/>
  <path class="cls-7" d="M70,27.14c0,1.47-1.19,2.65-2.65,2.65s-2.65-1.18-2.65-2.65,1.18-2.65,2.65-2.65,2.65,1.19,2.65,2.65Z"/>
  <g>
    <path class="cls-5" d="M63.92,30.91c5.02,13-1.46,27.6-14.45,32.62-13,5.02-27.6-1.45-32.62-14.45-5.01-12.99,1.45-27.59,14.45-32.6,12.99-5.01,27.6,1.45,32.61,14.44Z"/>
    <path class="cls-6" d="M31.31,16.47c-6.65,2.57-7.96,15.18-2.95,28.16,5.02,13.01,14.47,21.46,21.1,18.9-13,5.01-27.59-1.45-32.61-14.46-5.01-12.99,1.45-27.58,14.46-32.6Z"/>
    <path class="cls-8" d="M63.92,30.91c5.02,13-1.46,27.6-14.45,32.62-13,5.02-27.6-1.45-32.62-14.45-5.01-12.99,1.45-27.59,14.45-32.6,12.99-5.01,27.6,1.45,32.61,14.44Z"/>
    <path class="cls-2" d="M49.55,63.49s-.06.03-.09.04c-6.64,2.56-16.08-5.89-21.1-18.9-5.01-12.99-3.7-25.59,2.95-28.16,6.63-2.55,16.08,5.89,21.09,18.89,5,12.94,3.71,25.49-2.85,28.14Z"/>
    <path class="cls-8" d="M52.4,35.35c5.02,13,3.7,25.61-2.94,28.17-6.64,2.56-16.09-5.89-21.11-18.89-5.01-12.99-3.7-25.6,2.94-28.16,6.63-2.56,16.09,5.89,21.1,18.88Z"/>
    <path class="cls-8" d="M65.6,40.23c-5.43,4.9-12.31,9.11-20.39,12.23-8.09,3.12-16.02,4.63-23.35,4.65"/>
    <path class="cls-8" d="M62.04,27.06c-4.63,5.8-11.86,10.94-21.04,14.49-9.2,3.55-18.01,4.6-25.34,3.42"/>
    <path class="cls-8" d="M53.7,18.58c-3.16,4.57-9.24,9.08-16.92,12.05-7.69,2.97-15.24,3.72-20.66,2.47"/>
    <path class="cls-8" d="M42.87,14.84c-1.78,2.58-5.22,5.13-9.56,6.81s-8.62,2.1-11.68,1.4"/>
    <line class="cls-8" x1="31.3" y1="16.47" x2="49.47" y2="63.52"/>
  </g>
  <g>
    <path class="cls-2" d="M66.21,58.93c-4.9,1.39-10.64-3.74-12.82-11.43-2.18-7.68.02-15.07,4.91-16.46,4.93-1.4,10.68,3.73,12.86,11.42,2.18,7.68-.02,15.07-4.95,16.47Z"/>
    <path class="cls-1" d="M69.77,56.32c2.27-3.12,2.93-8.4,1.38-13.85-1.55-5.45-4.88-9.6-8.45-11.06l7.07,24.91Z"/>
    <path class="cls-2" d="M66.21,58.93l-5.69,1.61c-4.9,1.39-10.64-3.74-12.82-11.43-2.18-7.68.02-15.07,4.91-16.46l5.69-1.61c-4.9,1.39-7.09,8.77-4.91,16.46,2.18,7.68,7.93,12.82,12.82,11.43Z"/>
    <path class="cls-3" d="M56.43,53.96l-5.69,1.61c2.73,3.84,6.45,5.92,9.78,4.97l5.69-1.61c-3.33.94-7.05-1.13-9.78-4.97Z"/>
    <path class="cls-7" d="M47.7,49.12c-2.18-7.68.01-15.07,4.91-16.46l5.69-1.61c4.93-1.39,10.68,3.74,12.85,11.42,2.18,7.68-.01,15.07-4.94,16.47l-5.69,1.61c-4.9,1.39-10.64-3.74-12.83-11.43Z"/>
    <path class="cls-4" d="M61.07,47.47c-.32.03-.69-.19-1.14-.62-.33-.32-.62-.73-.86-1.23-.24-.51-.4-1.07-.5-1.7-.09-.62-.08-1.24.02-1.88l-.81-.78.22-.89.81.78c.27-.79.65-1.28,1.12-1.5.47-.19.97-.04,1.52.49l-.42,1.66c-.27-.23-.51-.32-.73-.29-.22.04-.4.22-.54.54l2.21,2.13c.26-.49.51-.88.72-1.14.22-.27.48-.41.8-.44.32-.02.7.18,1.15.61.56.54.95,1.25,1.18,2.11.24.89.27,1.78.12,2.69l.81.78-.22.89-.81-.78c-.25.74-.6,1.2-1.04,1.38-.44.18-.95.04-1.52-.44l.42-1.66c.21.18.42.25.64.21.21-.02.38-.18.52-.43l-2.17-2.09c-.26.5-.5.89-.7,1.16-.22.26-.48.41-.8.43ZM59.67,44.23c.13.41.34.74.6,1s.51.35.72.27c.2-.07.4-.27.6-.59l-2.03-1.96c-.06.44-.01.87.12,1.28M62.97,45.16l2.02,1.96c.07-.42.04-.83-.07-1.23-.11-.4-.32-.74-.61-1.02s-.52-.36-.73-.3c-.21.08-.41.28-.61.59"/>
    <path class="cls-8" d="M66.23,58.93c-4.9,1.39-10.64-3.74-12.82-11.43"/>
  </g>
  <g>
    <path class="cls-2" d="M28.34,22.54c2.59,3.38.38,9.43-4.93,13.5-5.3,4.07-11.73,4.64-14.32,1.26s-.39-9.46,4.91-13.52c5.3-4.07,11.73-4.64,14.33-1.24Z"/>
    <path class="cls-1" d="M25.21,20.58c-3.13-.8-7.44.32-11.2,3.2-3.76,2.88-5.96,6.76-5.99,9.99l17.19-13.19Z"/>
    <path class="cls-2" d="M28.34,22.54l3.01,3.93c2.59,3.38.38,9.43-4.93,13.5-5.3,4.07-11.73,4.64-14.32,1.26l-3.01-3.93c2.59,3.38,9.01,2.81,14.32-1.26,5.3-4.07,7.52-10.12,4.93-13.5Z"/>
    <path class="cls-3" d="M27.49,31.68l3.01,3.93c2.14-3.31,2.61-6.84.85-9.14l-3.01-3.93c1.76,2.3,1.3,5.83-.85,9.14Z"/>
    <path class="cls-7" d="M26.42,39.97c-5.3,4.07-11.73,4.64-14.32,1.26l-3.01-3.93c-2.61-3.4-.39-9.46,4.91-13.52,5.3-4.07,11.73-4.64,14.34-1.24l3.01,3.92c2.59,3.38.37,9.43-4.93,13.5Z"/>
    <path class="cls-4" d="M21.01,30.08c.12.24.07.6-.13,1.07-.15.36-.37.71-.7,1.05-.32.34-.71.64-1.17.91-.45.26-.94.45-1.47.56l-.36.87-.76.1.36-.87c-.7.03-1.2-.11-1.51-.41-.3-.31-.33-.75-.09-1.34l1.42-.19c-.1.28-.09.49,0,.66.1.16.3.24.59.25l.98-2.37c-.46-.05-.84-.13-1.11-.21-.28-.09-.47-.24-.59-.49-.11-.25-.07-.6.12-1.08.25-.6.68-1.12,1.28-1.57.62-.46,1.3-.76,2.05-.92l.36-.87.76-.1-.36.87c.66-.03,1.12.1,1.39.38.28.29.32.72.13,1.32l-1.42.19c.07-.22.06-.41-.03-.56-.08-.16-.26-.24-.5-.27l-.96,2.33c.47.05.85.11,1.12.19.27.09.47.24.58.49ZM18.93,32.17c.28-.23.47-.49.59-.77s.12-.51,0-.64c-.12-.14-.33-.23-.64-.28l-.9,2.19c.36-.09.68-.26.96-.49M18.63,29.32l.9-2.18c-.34.08-.66.22-.93.44-.28.21-.48.48-.61.79s-.12.51,0,.66c.13.14.34.23.65.29"/>
    <path class="cls-8" d="M28.33,22.53c2.59,3.38.38,9.43-4.93,13.5"/>
  </g>
</svg>