<?xml version="1.0" encoding="UTF-8"?>
<svg id="Icon" xmlns="http://www.w3.org/2000/svg" viewBox="0 0 80 80">
  <defs>
    <style>
      .cls-1 {
        fill: #efcc2a;
      }

      .cls-2 {
        fill: #22a6f0;
      }

      .cls-3 {
        fill: #fff;
      }

      .cls-4 {
        fill: #f0ba1a;
      }

      .cls-5 {
        fill: #19181d;
      }

      .cls-6 {
        fill: #efefef;
      }

      .cls-7 {
        fill: #e5e8ed;
      }

      .cls-8 {
        stroke: #1e1b19;
      }

      .cls-8, .cls-9 {
        fill: none;
        stroke-linejoin: round;
        stroke-width: .5px;
      }

      .cls-9 {
        stroke: #19181d;
      }
    </style>
  </defs>
  <path class="cls-8" d="M14.77,55.66c0,.92-.75,1.66-1.66,1.66s-1.66-.74-1.66-1.66.74-1.66,1.66-1.66,1.66.75,1.66,1.66Z"/>
  <path class="cls-8" d="M38.02,69.67c0,1.26-1.02,2.26-2.26,2.26s-2.26-1.01-2.26-2.26,1.01-2.26,2.26-2.26,2.26,1.02,2.26,2.26Z"/>
  <g>
    <line class="cls-8" x1="52.51" y1="9.71" x2="29.55" y2="59.87"/>
    <path class="cls-2" d="M9.21,22.26c15.76-27.83,71.04-13.26,61.28,29.17L9.21,22.26Z"/>
    <path class="cls-7" d="M52.68,42.95c12.51-22.52.31-30.73-.75-31.39-.05-.03-.08-.05-.08-.05-.02-.02-.05-.02-.06-.03-7.66-3.47-21.74,4.24-23.4,19.91"/>
    <path class="cls-8" d="M52.68,42.95c12.51-22.52.31-30.73-.75-31.39-.05-.03-.08-.05-.08-.05-.02-.02-.05-.02-.06-.03-7.66-3.47-21.74,4.24-23.4,19.91"/>
    <path class="cls-8" d="M9.21,22.26c15.76-27.83,71.04-13.26,61.28,29.17L9.21,22.26Z"/>
    <path class="cls-7" d="M70.49,51.43c-7.17-3.12-13.94-2.41-20.48.83-.03-.05-.05-.08-.08-.12-6.46-10.35-16.35-14.61-28.97-14.03-.02-.09-.03-.17-.05-.26-1.11-6.37-5.28-11.45-11.71-15.58,7.23-5.39,14.37-4.67,21.4,1.18.6-.03,1.2-.06,1.78-.06,8.17-.15,15.24,2.13,20.62,8.18,1.12,1.24,2.16,2.64,3.13,4.22,9.13,1.37,13.94,6.55,14.35,15.64Z"/>
    <path class="cls-6" d="M49.94,52.13c-6.46-10.35-16.35-14.61-28.97-14.03-.02-.09-.03-.17-.05-.26,2.26-6.74,6.66-11.65,11.47-14.46,4.82-2.84,10.02-3.55,13.85-1.81.02.02.05.02.06.03,0,0,.03.02.09.05.66.41,4.99,3.32,6.62,9.92,1.2,4.77.97,11.48-3.07,20.57Z"/>
    <path class="cls-8" d="M9.21,22.26c7.24-5.39,14.37-4.68,21.41,1.18,10.64-.62,19.56,2.58,25.52,12.35,9.14,1.36,13.95,6.55,14.35,15.64-7.16-3.12-13.94-2.41-20.47.82-6.47-10.44-16.39-14.74-29.05-14.15-1.04-6.49-5.24-11.66-11.76-15.84Z"/>
    <line class="cls-8" x1="45.17" y1="25.74" x2="29.55" y2="59.87"/>
    <path class="cls-3" d="M21.42,72c-.92,0-1.86-.19-2.75-.6-3.33-1.52-4.79-5.47-3.27-8.79l2.77-6.05c.35-.77,1.26-1.11,2.04-.76.77.35,1.11,1.26.76,2.03l-2.77,6.05c-.82,1.79-.03,3.9,1.76,4.72,1.79.82,3.9.03,4.72-1.76l6-13.12c.35-.77,1.27-1.11,2.03-.76.77.35,1.11,1.26.76,2.03l-6,13.12c-1.11,2.43-3.53,3.87-6.04,3.87Z"/>
    <path class="cls-8" d="M21.42,72c-.92,0-1.86-.19-2.75-.6-3.33-1.52-4.79-5.47-3.27-8.79l2.77-6.05c.35-.77,1.26-1.11,2.04-.76.77.35,1.11,1.26.76,2.03l-2.77,6.05c-.82,1.79-.03,3.9,1.76,4.72,1.79.82,3.9.03,4.72-1.76l6-13.12c.35-.77,1.27-1.11,2.03-.76.77.35,1.11,1.26.76,2.03l-6,13.12c-1.11,2.43-3.53,3.87-6.04,3.87Z"/>
  </g>
  <g>
    <path class="cls-3" d="M59.51,45.51c3,3.91.43,10.91-5.7,15.61-6.13,4.7-13.56,5.37-16.56,1.46s-.45-10.94,5.68-15.64,13.56-5.36,16.58-1.43Z"/>
    <path class="cls-1" d="M55.89,43.24c-3.62-.92-8.61.37-12.95,3.7-4.35,3.33-6.89,7.82-6.93,11.55l19.88-15.25Z"/>
    <path class="cls-3" d="M59.51,45.51l3.48,4.54c3,3.91.43,10.91-5.7,15.61-6.13,4.7-13.56,5.37-16.56,1.46l-3.48-4.54c3,3.91,10.42,3.25,16.56-1.46,6.13-4.7,8.7-11.71,5.7-15.61Z"/>
    <path class="cls-4" d="M58.53,56.08l3.48,4.54c2.48-3.82,3.02-7.91.98-10.57l-3.48-4.54c2.04,2.66,1.5,6.75-.98,10.57Z"/>
    <path class="cls-8" d="M57.29,65.67c-6.13,4.71-13.56,5.37-16.56,1.46l-3.48-4.54c-3.01-3.93-.45-10.94,5.68-15.64,6.13-4.71,13.56-5.37,16.58-1.43l3.48,4.54c3,3.91.43,10.91-5.7,15.62Z"/>
    <path class="cls-5" d="M51.03,54.23c.14.27.08.69-.15,1.24-.17.41-.43.82-.8,1.21-.37.39-.82.75-1.35,1.05-.52.3-1.09.52-1.7.65l-.42,1.01-.88.12.42-1.01c-.81.04-1.39-.13-1.74-.47-.34-.35-.38-.86-.1-1.55l1.64-.22c-.11.33-.1.57,0,.76.11.19.34.28.68.29l1.13-2.74c-.54-.06-.97-.15-1.29-.24-.32-.1-.54-.28-.68-.57-.13-.28-.09-.7.14-1.25.28-.69.78-1.3,1.48-1.82.71-.53,1.51-.88,2.37-1.07l.42-1.01.88-.12-.42,1.01c.76-.04,1.3.11,1.61.44.32.33.37.84.15,1.52l-1.64.22c.08-.25.07-.47-.04-.65-.1-.18-.3-.28-.58-.31l-1.11,2.7c.54.05.98.13,1.29.22.31.1.54.28.67.57ZM48.63,56.65c.32-.26.55-.57.68-.9s.14-.58,0-.74c-.13-.16-.39-.27-.74-.33l-1.04,2.53c.42-.11.79-.3,1.11-.56M48.28,53.35l1.04-2.52c-.4.09-.77.26-1.08.5-.32.25-.55.55-.7.92s-.14.59,0,.76c.14.16.4.27.75.34"/>
    <path class="cls-9" d="M59.5,45.5c3,3.91.43,10.91-5.7,15.61"/>
  </g>
  <g>
    <path class="cls-3" d="M17.85,52.6c-4.5-1.99-5.61-9.37-2.48-16.43,3.13-7.07,9.33-11.21,13.83-9.21s5.64,9.38,2.51,16.45c-3.13,7.07-9.33,11.21-13.86,9.2Z"/>
    <path class="cls-1" d="M22.12,52.85c3.62-.92,7.38-4.45,9.59-9.46,2.22-5.01,2.3-10.16.55-13.46l-10.14,22.92Z"/>
    <path class="cls-3" d="M17.85,52.6l-5.23-2.32c-4.5-1.99-5.61-9.37-2.48-16.43,3.13-7.07,9.33-11.21,13.83-9.21l5.23,2.32c-4.5-1.99-10.7,2.15-13.83,9.21-3.13,7.07-2.02,14.44,2.48,16.43Z"/>
    <path class="cls-4" d="M13.65,42.85l-5.23-2.32c-.34,4.55,1.14,8.39,4.21,9.75l5.23,2.32c-3.06-1.36-4.55-5.2-4.21-9.75Z"/>
    <path class="cls-8" d="M10.14,33.85c3.13-7.07,9.33-11.21,13.83-9.22l5.23,2.32c4.53,2.01,5.64,9.38,2.51,16.45-3.13,7.07-9.33,11.21-13.86,9.2l-5.23-2.31c-4.51-1.99-5.61-9.37-2.48-16.44Z"/>
    <path class="cls-5" d="M21.11,40.88c-.25-.18-.4-.57-.47-1.16-.05-.44-.01-.93.12-1.45.14-.52.36-1.05.68-1.57.32-.51.71-.97,1.18-1.38l-.12-1.09.71-.52.12,1.09c.69-.42,1.28-.55,1.76-.42.47.15.75.57.83,1.31l-1.34.98c-.06-.34-.19-.55-.37-.67-.19-.11-.44-.08-.74.07l.32,2.95c.5-.2.92-.34,1.24-.41.33-.07.61-.01.87.17.25.19.41.57.47,1.16.08.74-.06,1.51-.43,2.3-.37.81-.9,1.49-1.57,2.07l.12,1.09-.71.52-.12-1.09c-.65.4-1.19.52-1.63.38-.44-.13-.73-.56-.86-1.27l1.34-.98c.05.26.16.45.35.55.17.11.39.1.66,0l-.32-2.9c-.5.21-.92.36-1.24.43-.32.06-.61.01-.86-.17ZM22.07,37.61c-.15.38-.21.76-.17,1.11s.16.58.36.65c.19.08.47.05.81-.07l-.3-2.72c-.31.29-.55.64-.7,1.02M23.96,40.34l.3,2.71c.31-.27.55-.6.7-.96.16-.37.22-.75.18-1.14-.04-.37-.16-.59-.36-.67-.2-.07-.48-.04-.82.06"/>
    <path class="cls-9" d="M17.87,52.61c-4.5-1.99-5.61-9.37-2.48-16.44"/>
  </g>
</svg>